<svg xmlns="http://www.w3.org/2000/svg" viewBox="0 0 32 32"><circle cx="16" cy="16" r="16" fill="#66F9A1"/><path fill="#FFF" d="M10.5 19.4l2.4-2.4h8.2c.2 0 .4-.1.4-.4v-.8c0-.2-.1-.4-.4-.4h-8.2l-2.4-2.4c-.1-.1-.4-.1-.5 0l-2.4 2.4c-.1.1-.1.4 0 .5l2.4 2.4c.1.1.4.1.5 0zm11 2.9l-2.4-2.4h-8.2c-.2 0-.4-.1-.4-.4v-.8c0-.2.1-.4.4-.4h8.2l2.4-2.4c.1-.1.4-.1.5 0l2.4 2.4c.1.1.1.4 0 .5l-2.4 2.4c-.1.1-.4.1-.5 0zm-11-8.7l2.4-2.4h8.2c.2 0 .4-.1.4-.4v-.8c0-.2-.1-.4-.4-.4h-8.2l-2.4-2.4c-.1-.1-.4-.1-.5 0l-2.4 2.4c-.1.1-.1.4 0 .5l2.4 2.4c.1.1.4.1.5 0z"/></svg>
